<svg version="1.2" xmlns="http://www.w3.org/2000/svg" viewBox="0 0 825 646" width="825" height="646"><defs><linearGradient id="P" gradientUnits="userSpaceOnUse"/><linearGradient id="g1" x1="224.7" y1="163.1" x2="228.1" y2="113.4" href="#P"><stop stop-color="#4cdde9"/><stop offset="1" stop-color="#fff"/></linearGradient><linearGradient id="g2" x1="131.9" y1="184.4" x2="207.2" y2="147.4" href="#P"><stop stop-color="#4cdde9"/><stop offset="1" stop-color="#fff"/></linearGradient><linearGradient id="g3" x1="101.1" y1="240.6" x2="65.4" y2="209" href="#P"><stop stop-color="#4cdde9"/><stop offset="1" stop-color="#fff"/></linearGradient><linearGradient id="g4" x1="213.3" y1="315" x2="101.6" y2="237" href="#P"><stop stop-color="#4cdde9"/><stop offset="1" stop-color="#fff"/></linearGradient><linearGradient id="g5" x1="261.6" y1="369.4" x2="294.1" y2="343.7" href="#P"><stop stop-color="#fff"/><stop offset="1" stop-color="#cecece"/></linearGradient><linearGradient id="g6" x1="218.6" y1="383.4" x2="239.2" y2="392.8" href="#P"><stop stop-color="#fff"/><stop offset="1" stop-color="#cecece"/></linearGradient><linearGradient id="g7" x1="216.8" y1="305.5" x2="238.6" y2="283.1" href="#P"><stop stop-color="#fff"/><stop offset="1" stop-color="#cecece"/></linearGradient><linearGradient id="g8" x1="615.3" y1="118.2" x2="572.5" y2="98.3" href="#P"><stop stop-color="#4cdde9"/><stop offset="1" stop-color="#fff"/></linearGradient><linearGradient id="g9" x1="694.1" y1="155.7" x2="623.5" y2="111.1" href="#P"><stop stop-color="#4cdde9"/><stop offset="1" stop-color="#fff"/></linearGradient><linearGradient id="g10" x1="736.1" y1="216.5" x2="724.6" y2="160.4" href="#P"><stop stop-color="#4cdde9"/><stop offset="1" stop-color="#fff"/></linearGradient><linearGradient id="g11" x1="417.5" y1="477.8" x2="487.8" y2="458.9" href="#P"><stop stop-color="#969696"/><stop offset="1" stop-color="#5a5a5a"/></linearGradient><linearGradient id="g12" x1="442.4" y1="370.4" x2="516" y2="278.5" href="#P"><stop stop-color="#f6d4d2"/><stop offset="1" stop-color="#804947"/></linearGradient><linearGradient id="g13" x1="381.3" y1="440.3" x2="360.4" y2="310.3" href="#P"><stop stop-color="#f6d4d2"/><stop offset="1" stop-color="#fff"/></linearGradient><linearGradient id="g14" x1="409.7" y1="639.1" x2="450.7" y2="507.5" href="#P"><stop stop-color="#f00"/><stop offset="1" stop-color="#f00" stop-opacity="0"/></linearGradient><linearGradient id="g15" x1="434.2" y1="632" x2="448.1" y2="497.7" href="#P"><stop/><stop offset="1" stop-opacity="0"/></linearGradient><linearGradient id="g16" x1="452.9" y1="593.4" x2="467.8" y2="492" href="#P"><stop stop-color="#ff0"/><stop offset="1" stop-color="#ff0" stop-opacity="0"/></linearGradient><linearGradient id="g17" x1="437.5" y1="292.9" x2="425.5" y2="238.4" href="#P"><stop stop-color="#4cdde9"/><stop offset="1" stop-color="#2e848c"/></linearGradient><linearGradient id="g18" x1="460.4" y1="143.3" x2="586.8" y2="108.2" href="#P"><stop stop-color="#f6d4d2"/><stop offset="1" stop-color="#f5938e"/></linearGradient><linearGradient id="g19" x1="256" y1="192.6" x2="327.9" y2="83.9" href="#P"><stop stop-color="#f6d4d2"/><stop offset="1" stop-color="#fff"/></linearGradient><linearGradient id="g20" x1="443" y1="185.4" x2="441.3" y2="130.2" href="#P"><stop stop-color="#4cdde9"/><stop offset="1" stop-opacity="0"/></linearGradient><linearGradient id="g21" x1="367.9" y1="187.9" x2="365.1" y2="115.6" href="#P"><stop stop-color="#4cdde9"/><stop offset="1" stop-opacity="0"/></linearGradient><linearGradient id="g22" x1="431.2" y1="28.5" x2="386.7" y2="28" href="#P"><stop stop-color="#4cdde9"/><stop offset="1" stop-color="#fff"/></linearGradient><linearGradient id="g23" x1="433.4" y1="59.6" x2="358.3" y2="44.7" href="#P"><stop stop-color="#4cdde9"/><stop offset="1" stop-color="#fff"/></linearGradient><linearGradient id="g24" x1="523.4" y1="266.4" x2="721.6" y2="206.7" href="#P"><stop stop-color="#4cdde9"/><stop offset="1" stop-color="#fff"/></linearGradient><linearGradient id="g25" x1="457.5" y1="280.7" x2="475.5" y2="313.6" href="#P"><stop stop-color="#fff"/><stop offset="1" stop-color="#cecece"/></linearGradient><linearGradient id="g26" x1="439.6" y1="213.9" x2="450.5" y2="215.9" href="#P"><stop stop-color="#fff"/><stop offset="1" stop-color="#cecece"/></linearGradient></defs><style>.a{fill:#4cdde9}.b{fill:url(#g1)}.c{fill:url(#g2)}.d{fill:url(#g3)}.e{fill:url(#g4)}.f{fill:url(#g5)}.g{fill:url(#g6)}.h{fill:url(#g7)}.i{fill:url(#g8)}.j{fill:url(#g9)}.k{fill:url(#g10)}.l{fill:#969696}.m{fill:url(#g11)}.n{fill:#f6d4d2}.o{fill:url(#g12)}.p{fill:url(#g13)}.q{fill:url(#g14)}.r{fill:url(#g15)}.s{fill:url(#g16)}.t{fill:url(#g17)}.u{fill:url(#g18)}.v{fill:url(#g19)}.w{fill:url(#g20)}.x{fill:#fff}.y{fill:url(#g21)}.z{fill:url(#g22)}.A{fill:url(#g23)}.B{fill:url(#g24)}.C{fill:url(#g25)}.D{fill:url(#g26)}</style><path fill-rule="evenodd" d="m410.1 4c8.6-0.2 17.2 0.1 25.2 3.2 13.5 3.6 29.1 6.9 37.4 19.3 1.6 2 2.7 4.2 3.4 6.5 32.8 8.4 63.4 23.8 90.2 44.4 7.6-9 18.8-14.8 30.8-14.7q1.7-0.1 3.3 0c20.3 0.3 37.7 16.1 42.7 35.2 20.7 6.3 41.1 14.1 59.7 25.2 8.4 5.9 17.4 11.6 25.2 18.4q2.6-0.3 5.1-0.3c6-0.2 12 0.5 17.7 2 19.9 4.5 34.8 23.3 35.1 43.6-0.2 40.2-42.7 72.4-81.6 63.9-5.1-0.9-13-8.4-21.5-10.6-16.9-4.3-24.5 3.8-72.9 25.1-1.9 2.5-32.6 7.1-45.3 15.7-10.8 7.3 10.3 11-5.8 20.1-8.7 5.7-26.6 9.3-29 17.5-5.9 19.6-2.1 46-6.4 70.6q-2.1 24.9-4.3 49.8-6.3 4.2-13 7.9-0.9 16.4-1.7 32.8c-4.2 5.3-11.7 8.4-17.7 12.1-29.9 18.3-68.3 17.5-100.6 5.9q-4.3-17.8-8.7-35.6c-4.8-1.3-9.5-2.7-14.1-4.4-10.8-30.3-24.2-59.7-36.9-89.3-6.9 22.9-22.4 42.9-40.6 58.2-16.4 10.9-32.9 26.8-54.1 25-19.6-0.7-33.4-17.7-40.4-34.5-6.5-10.5-2.2-26.3 9.8-30.5 0.9-8.2 7.9-15.6 16.1-17.4 5.3 0-1.3-5.1-1.6-7.8-5.7-1.8-12.7-2.1-18.6-4.7-12.5-3.9-18.9-17.1-18.8-29.6q-28-22.1-56-44.4c-6.1-3.8-12.2-8.4-17.1-13.9-8.5 4-17.7 6.1-27 5.8-18.3 0.8-36.1-13.1-38.7-31.4-4.2-34.9 27-67.4 61.2-68.9h1q0.7-0.1 1.5-0.1c16-13 34.3-23.3 53.3-31.1 9.5-2.9 18.7-7.5 28.2-10.5 5.9-19.9 25.6-35.4 46.6-35.6 7.4-0.3 14.5 1.3 21 4.4q4.9-5.6 10-10.9c22.6-24.4 51.3-43 82.7-54 5.4-11.6 18.1-19.4 30.1-23.2 10.6-4.1 21.3-9.1 32.8-9.3q1.2 0 2.3 0.1zm217.3 138.6q3.9 5.8 7.4 11.7c5.3 5.3 3.5 15.4-3.8 17.8-13.8 9.5-28.3 18-43.3 25.5-3.6 16.7-7.7 33.2-11.7 49.8q1.6 0.2 3.1 0.4c6.6 0.8 13.3 2.7 19.5 5.5 21.5-12 42.4-25 63.9-36.9 1.4-0.6 2.8-1.3 4.2-2q-0.5-2.6-0.6-5.1c-0.7-13.2 3.2-25.6 10.2-36.2-13.3-13.3-25.5-28.1-42.8-35.8q-0.1 0-0.1 0-2.7 2.9-6 5.3zm-485.7 82.6q-1.1 4.4-2.8 8.6c24.4 12.3 47.7 26.8 71.4 40.6 6.7-3.8 14-6.4 21.6-7.3 8.5-1 16.7 2.6 21.7 9.5 2 1.4 2.4 6.1 5 5.7q2.1-0.4 4.1-0.7c-6.8-14-13.6-28.1-20.1-42.2-19.8-4.3-39-11.1-53-26q5.3-15.9 12-31.2-3.3-2.5-6.2-5.5c-22.2 10.5-36.4 31.7-53.7 48.5z"/><path  d="m273.9 148c-2.5 24.2-28.5 43.2-52.3 38.3-24.3-3.4-40.5-29.5-32.9-52.8 6.3-24.1 35.4-39 58.3-30 18.2 6.4 29.6 25.4 26.9 44.5z"/><path class="a" d="m213.9 180c-19.9-8.4-28.5-31.2-19.3-51.2 9.3-19.9 32.8-29.2 52.7-20.8 19.9 8.3 28.5 31.2 19.3 51.1-9.3 20-32.8 29.3-52.7 20.9z"/><path class="b" d="m215.7 176c-17.7-7.4-25.3-27.8-17.1-45.5 8.2-17.7 29.2-26 46.9-18.6 17.7 7.5 25.3 27.8 17.1 45.5-8.2 17.8-29.2 26.1-46.9 18.6z"/><path  d="m191.9 173.6c-22.9 12.6-36.5 32.8-53.9 49.5q-27-11.9-54.2-23.7c4-7.1 11.1-13.2 18.3-18.9 20.7-18.8 48.1-32.1 76-41.1 11-5.5 25-8.4 34.5-3.5 12.2 4.1 9.7 18.3-0.4 26.7-4.9 5.7-13.1 8-20.3 11z"/><path class="a" d="m91.6 196.9c0 0 3.5-6.4 32.2-27.2 24-17.5 55.4-24.8 65.1-29.7 9.6-5 28.9-0.2 25.9 9.7-3.1 9.9-14.6 16.1-14.6 16.1 0 0-12.2 2.6-24.5 12.7-12.3 10.2-38.4 38.4-38.4 38.4z"/><path class="c" d="m138.5 208.7c-3.6 1.9-24.2-8.7-30.7-11.3 18.7-17.5 40.8-27.8 55.5-36.1 10.1-5.7 37.7-18.7 42.6-16 6.1 3.4 3.7 7.3-1.7 11.9-17.2 8.7-52.9 26.2-65.7 51.5z"/><path  d="m130.1 188.8c16.6 16.2 9.9 49.8-13.6 67.9-22.7 19.2-56.4 18.4-68.1-1.6-13.5-19.4-0.9-53.4 25-68.3 20.1-12.3 44.1-11.3 56.7 2z"/><path class="a" d="m105.2 259.8c-22.9 12.6-47.8 7-55.5-12.6-7.8-19.6 4.4-45.6 27.4-58.2 23-12.6 47.8-6.9 55.6 12.6 7.7 19.6-4.5 45.6-27.5 58.2z"/><path class="d" d="m103.7 255.9c-20.5 11.2-42.5 6.2-49.5-11.2-6.9-17.4 4-40.6 24.4-51.8 20.5-11.2 42.6-6.1 49.5 11.3 6.9 17.4-4 40.5-24.4 51.7z"/><path  d="m123.4 230.2c37.2 18.3 72.3 41 108.7 61 9.2 1.5 12 13.1 8.3 20.6-8.5 16.9-29.5 19.6-46 23-20.1-16-40.2-31.9-60.4-47.8-10.2-10.3-25.7-15.5-31.7-29.4-5.3-9-5.9-25.1 6.3-28.3 4.9-1.4 10.1-0.6 14.8 0.9z"/><path class="a" d="m128.3 238.1l107.5 61.6c0 0 3.8 11-7.8 18.5-11.6 7.6-32.1 10.6-32.1 10.6l-85.7-67.7c0 0-10.4-17.6-3.8-24.3 6.6-6.7 21.9 1.3 21.9 1.3z"/><path class="e" d="m119.6 240.7c31.4 15.4 63.7 37.9 110.6 62.2-5.5 12.6-21.2 16.9-32.8 20q-28-22.1-56-44.1c-8.8-8.7-21.7-13.1-28.1-23.8-2.2-3.6-7-12.2-1.7-14.9 2.5-1.3 5.7-0.5 8 0.6z"/><path  d="m216.6 275.6q1.1-0.5 2.3-1c9.7-4.5 24-6.2 30.9 3.8 2.2 2.8 4 5.8 5.7 9 16.9-6.3 36 2.6 47.9 15 22.7 20.9 27.5 43.2 16.9 71.7-6.5 17.3-25.4 42-40.8 52.1-20 13.1-30.2 23.8-51.3 20.8-17.4-2.4-28.5-19.6-34.6-35-3.3-7.8-0.4-17.8 8-21.1q1.8-1.1 3.8-1.7c-0.8-6.3 3.3-12.6 9.3-14.9 3.9-1.7 8.4-2.3 12.6-1.7-3.7-4.8-6.7-10.1-9.3-15.5-12-1.7-27.5-3.6-32.9-16.1-10.1-26 7.8-53.9 31.5-65.4z"/><path class="f" d="m319.6 335.9c6.5 20.5-7.9 56.2-33.1 78.2-26.6 23.3-47.4 34.2-63.2 27.1-15.8-7.2-29.5-31.7-26.1-40 3.4-8.3 19.1-12.7 28.9-3.9 9.8 8.7 18.4 16.3 18.4 16.3 0 0-2.1-9.8 15.6-26.3-10.5-1-22.1-3.6-37-29.4-15-25.8 6.5-56.6 35.1-66.7 24.6-8.6 53.4 19.5 61.4 44.7z"/><path class="g" d="m215.4 378.8c3.3-1.7 7.9-2.5 13.3-1.6q1.6 0.3 3.4 0.9c5 5.2 10.9 9.4 17.9 11.7q0.3 0.3 0.6 0.6c-2.6 4.3-7.2 9-9.1 14.4-2.2-0.7-4.6-4.1-6.9-5.9-5.8-7.2-15.5-11.6-24.7-10.6-0.6-3.7 1.5-7.3 5.5-9.5z"/><path class="h" d="m219.4 279.1c6.9-3.2 13.3-4.1 18.3-3.6 6.1 0.7 10.9 7.9 13.8 13.7q-0.1 0-0.1 0c-3.1 1.4-6.2 3-9 4.9-18.8 11.7-33.6 34.4-27.1 56.9 0.2 0.4 0.5 0.9 0.7 1.4-7.2-0.9-16.5-2.9-21.9-6.7-9.4-6.5-11.5-31.3 3.3-49 7.5-8.8 15-14.4 22-17.6z"/><path  d="m618 71.7c20.6 10.4 28.9 38.7 16.8 57.1-10.9 19.2-39.3 23.9-57.3 9.5-19.3-13.5-22.9-43.1-7.5-59.2 11.6-13.2 32.1-16.2 48-7.4z"/><path class="a" d="m626.7 133.1c-13.9 13.9-36.9 13.3-51.5-1.3-14.5-14.7-15.1-37.7-1.2-51.5 13.9-13.9 36.9-13.3 51.5 1.3 14.5 14.6 15.1 37.6 1.2 51.5z"/><path class="i" d="m623.8 130.2c-12.3 12.3-32.8 11.8-45.8-1.2-12.9-13-13.4-33.5-1.1-45.8 12.4-12.3 32.8-11.8 45.8 1.2 13 13 13.5 33.5 1.1 45.8z"/><path  d="m618.2 124.6c-9.3-7.3-11.7-19.7-0.5-23.3 8.8-4.3 21.7-1.7 31.8 3.1 25.8 7.8 51.1 19.4 70.2 35.8 6.6 5 13.1 10.3 16.8 16.5q-25 10.3-50 20.6c-16-14.5-28.5-32.1-49.6-43.1-6.7-2.6-14.2-4.6-18.7-9.6z"/><path class="a" d="m687.2 171.9c0 0-24-24.6-35.4-33.4-11.4-8.8-22.6-11.1-22.6-11.1 0 0-10.5-5.4-13.4-14-2.8-8.7 14.9-12.9 23.8-8.6 8.9 4.4 37.9 10.8 60 25.9 26.5 18.3 29.8 23.8 29.8 23.8z"/><path class="j" d="m625.5 119.9c-5-4-7.1-7.5-1.5-10.4 4.5-2.4 29.9 9 39.2 13.9 13.6 7.3 34 16.3 51.1 31.5-5.9 2.3-24.9 11.6-28.2 9.9-11.8-22-44.7-37.3-60.6-44.9z"/><path  d="m699.3 156c27.8-18.8 66.7-12.4 78.2 13.2 12.8 24-3.9 60.1-34.1 72.9-29.6 14.3-65.1 1.9-71.8-25.1-6.2-20.9 5.5-46.9 27.7-61z"/><path class="a" d="m682.5 227.2c-14.6-19.5-7-49 17-66 24-16.9 55.2-14.8 69.8 4.7 14.6 19.6 6.9 49.1-17.1 66-24 17-55.1 14.9-69.7-4.7z"/><path class="k" d="m687.3 223.8c-13-17.4-6.2-43.6 15.2-58.7 21.3-15.1 49-13.2 62 4.2 12.9 17.4 6.2 43.7-15.2 58.7-21.3 15.1-49.1 13.2-62-4.2z"/><path  d="m502.9 433.1c-0.9 15.1-1.7 30.2-2.4 45.4-6.7 4.7-13.5 8.8-20.8 12.3-27.8 15.2-61.1 13.4-90.2 3.7q-5.7-23-11.4-46c40.6 9.2 84.6 5.9 122-14q1.4-0.7 2.8-1.4z"/><path class="l" d="m496.9 476.4c0 0-23.8 17.2-48.8 20.9-27.2 3.9-55.6-5.9-55.6-5.9l-9.4-38c38.8 7.7 80.2 4.1 115.8-14.1z"/><path class="m" d="m496.9 476.4c0 0-4 2.8-10.3 6.5l-0.8-0.1c0 0-6.4-21.2-13.8-21.8-7.4-0.5-8.8 25-8.8 25 0 0-3.4-22.1-15.6-25-12.1-2.9-13.3 24.6-13.3 24.6 0 0-1.6-15.8-9.1-24.5-1.1-1.3-2.7-2.6-4.6-3.9 27 0.1 54-5.5 78.3-17.9z"/><path  d="m527.3 255q1.5-0.9 3.1-1.8c-4.3 52.2-11.3 141.4-15.1 183.4-42.6 28.6-101.3 34.7-148.8 17.9-20.8-57.4-49.8-110.6-66-167.3 28.1 12.4 75.6 13.9 104.9 11.2 42.6-5.4 83.9-20.8 121.9-43.4z"/><path class="n" d="m511.9 432.2c0 0-19 19.2-62.3 26.1-43.3 7-80.2-7.4-80.2-7.4 0 0-30.4-89-63.3-157.9 39.7 15.8 100.8 14.1 140.3 1.7 27.5-7.7 54.3-18.6 79.5-33.6z"/><path class="o" d="m511.9 432.2c0 0-0.5 0.5-1.4 1.3-15.4-57-55.4-105.2-107.8-130.3 14.9-1.2 29.5-4 43.7-8.5 27.5-7.7 54.3-18.6 79.5-33.6z"/><path class="p" d="m396.9 308.2l18.8 147.2c-13-0.8-26-3.1-38.7-6.9l-38.5-147.2c19.2 5.5 38.9 7.7 58.4 6.9z"/><path class="q" d="m423.2 492.2l38-11.7c0 0 14.7 6.2 27.9 18.7 13.2 12.5 41.6 51.1 8.7 94.4-33 43.4-100.8 42.7-100.8 42.7 0 0 20.5 1.3 26.7-32.5 0 0-40.7-19.9-39.7-54.4 1.1-34.5 39.2-57.2 39.2-57.2z"/><path fill-rule="evenodd" class="r" d="m469.2 478.5c36.5 18.3 57.1 55.8 47.9 90.3-8.4 33.3-42.7 58.9-81.6 67.7-16.4 2.9-34.6 8.3-50.5 1 3.6-2.4 7.3-4.9 11.8-6.1 13.5-2.7 17.8-15.4 20-25.2-17.2-10-31.4-24.4-36.8-41.4-7.7-24.1 6-49.8 26.5-67.1 13.5-13.5 35.8-15.7 54.2-22.5q0.8 0 1.6 0.1c2.4 0.6 4.7 2.3 6.9 3.2zm-46 13.7c0 0-38.1 22.7-39.2 57.2-1 34.5 39.7 54.5 39.7 54.5-5.4 29.2-21.5 32.1-25.7 32.3 8.3-0.1 69.1-2.2 99.8-42.5 32.9-43.4 4.5-82-8.7-94.5-13.3-12.5-27.9-18.7-27.9-18.7z"/><path class="s" d="m476.9 496.9c2.8 0.2 20.3 24 6.5 59.8-13.8 35.9-37.2 43.7-37.2 43.7 0 0 5.3-12.3-0.2-20.6-10-15.3-17.6-14.9-25.7-36.9-8.1-22 23.2-45.7 23.2-45.7 0 0 30.5-0.5 33.4-0.3z"/><path  d="m593.5 174c-4.6 28.7-23.5 91.4-28.1 120.2-33.5 16.1-72.5 36.9-110.2 41.4-57.8 6.8-102.6 11.4-173-14.8-10.8-24.4-37.7-75.1-48.5-99.5 10.1 2.5 29.4 14.2 39.5 16 88.6 13.3 186.4-2.4 320.3-63.3z"/><path class="a" d="m557.8 291c0 0-54.8 37.3-136.2 43.7-81.4 6.3-132.7-18.7-132.7-18.7l-38.2-78.8c26.8 6.9 54.2 9.6 81 12.2 81.8 6.7 164.8 2 238.8-25.2z"/><path class="t" d="m557.7 290.9c-38.1-18.2-76.3-32.1-192.5-20.4-38.3 3.8-71.1 36.6-76.3 44.7-8.6-15.7-13-25.4-38.2-77.9 214.3 30.2 294.2-33.5 331.6-54.9z"/><path  d="m432.6 30c78.9 5.1 154.8 52.6 197.9 125.4 4.7 5.6 5.2 10.6-2.2 13.5-58.9 40.8-128.2 61.2-197.4 70.3-57.2 6.3-115.3 8.7-172.6-0.7-22.3-4.6-46.7-8.7-64.1-26.2 17.4-51.4 46.1-98.4 85.2-132.7 42-38.2 98.5-55 153.2-49.6z"/><path class="n" d="m199.3 211c0 0 53.2-174.3 208.4-177 155.2-2.6 221.6 128.2 221.6 128.2 0 0-80.8 67-240.9 76.1-160.1 9.1-189.1-27.3-189.1-27.3z"/><path class="u" d="m629.3 162.2c0 0-43.6 36.2-130.2 59 4.8-11.8 7.8-24.3 8.8-37.5 4.3-62.4-39.3-120.5-105.1-149.5q2.4-0.1 4.9-0.2c9.7-0.1 19 0.2 28.1 1.1 135.1 12.2 193.5 127.1 193.5 127.1z"/><path class="v" d="m406.8 57.4c-56.9 18.8-103.9 84.1-113.2 165.7q-0.5 5-0.9 9.9-5.6-0.4-11.1-1c-22.8-3.1-46.7-5.7-67.4-16.7 25.3-96.7 102.7-168.2 175.8-161q8.7 0.9 16.8 3.1z"/><ellipse  cx="441.4" cy="165.4" rx="13.7" ry="35.1"/><ellipse class="w" cx="441.4" cy="165.4" rx="11.9" ry="30.6"/><ellipse class="x" cx="437.3" cy="154.3" rx="6" ry="15.3"/><ellipse  cx="365.3" cy="161.7" rx="22" ry="46"/><ellipse class="y" cx="365.3" cy="161.7" rx="19.2" ry="40.1"/><ellipse class="x" cx="358.6" cy="147.1" rx="9.6" ry="20.1"/><path  d="m269.5 217.5c-3.4 5.6 0 0 0 0 0 0-17.1 7.9-11-8.3 7.7-20.5 17.1-15.2 17.1-15.2 0 0 1.9 3.9 0.8 9.2 15.7 14.3 56.4 8.3 56.4 8.3 0 0-31.3 19.9-63.3 6z"/><path  d="m437.6 12.7c0.4-0.2 0.9-0.2 1.5-0.2 12.1 2.6 28.4 7.7 33.4 22.4 4 13.4-7.2 25-16.9 29.9-27.5 14.1-60.3 16.7-89.3 5.6-10.5-3.5-22.8-14.6-19.3-28.5 5.7-16.5 21.4-22.7 35.6-26.8 11.9-7.6 27.1-7.8 40.6-6.7q1.4 0.1 2.7 0.4c4 0.7 8.1 1.9 11.7 3.9z"/><path class="a" d="m408 43.8c-18.5 0.4-32.6-6.2-31.6-14.8 1-8.6 16.8-15.9 35.3-16.3 18.5-0.3 32.6 6.3 31.6 14.9-1 8.6-16.8 15.9-35.3 16.2z"/><path class="a" d="m468.9 42.1c-1.9 15.6-29.8 29-62.4 29.9-32.6 0.9-57.5-11.1-55.6-26.8 1-8.9 10.5-17.1 24.4-22.6-2.1 2.2-3.4 4.6-3.7 7.1-1.2 10 14.9 17.7 36 17.2 21.1-0.5 39.2-9.1 40.4-19.1 0.4-3.4-1.2-6.5-4.3-9.1 16.2 4.6 26.4 13.2 25.2 23.4z"/><path class="z" d="m408.3 41c-15.1 0.3-26.7-5.1-25.8-12.1 0.8-7.1 13.7-13 28.8-13.3 15.2-0.4 26.7 5.1 25.9 12.1-0.8 7.1-13.7 13-28.9 13.3z"/><path class="A" d="m460.7 32.9c5.8 4.1 3.9 12.8-0.8 16.7-19.1 15.6-44.4 18.8-67.5 16.7-12.6-1.9-28-3.1-36.1-15.8-3.6-8.2 5.2-15.1 10.8-18.3 0.5 3.8 2.4 7.1 4.8 9.6 15.4 12.1 35.6 12 53.1 7.8 10.7-2.8 25.5-7.5 27.4-22 2.6 0.2 6 3.1 8.3 5.3z"/><path  d="m708.2 230.9c-52 21.8-108.8 39.9-162.7 60.3-8.6 6.8-26.6 3.7-34.4-2.7-17.3-14.6-6-32.9 1.2-47.9 36.6-9 73-18.1 109.6-27.2 21.6-3.5 48.6-17.8 72.3-16.3 16.2-0.1 34.3-1.2 25.9 22.2-1.6 4.6-6.3 8.5-11.9 11.6z"/><path class="a" d="m699.5 228.5l-171.4 63.1c0 0-18.7-1.5-20.7-14.4-2-12.9 9.3-31.3 9.3-31.3l163.5-42.4c0 0 33.5-1.1 38.1 7.3 4.5 8.4-18.8 17.7-18.8 17.7z"/><path class="B" d="m702.4 220.1c-46.2 19.6-103.4 36.9-174.6 65.5-13.9-10-8.1-24.9-3.6-35.9q53.3-13.9 106.6-27.7c19.3-3.6 35.5-12.5 55.9-13.3 6.9-0.2 23-0.6 22.8 5.1 0 2.5-3.6 4.9-7.1 6.3z"/><path  d="m421.7 218.5c0.2-0.6 0.5-1.2 1.2-1.7 6.5-4.7 13-10.7 21.4-11.2 9.5 0.2 14.8 8.9 18.7 16.9 7.2 3.4 13.7 8.1 19.1 13.9 2.1 4.1 5.7-0.5 8.9-0.6 9.6-3.6 20.6 0 26.7 8.2 11 14.2 22.1 30.1 24 48.4 2.2 13.5-10.5 23.4-22.6 25.3-3.4 1.6-8.8-0.9-10.3 3-7.8 14-23.9 20.7-39.3 21.5 0.6 4.3 1.7 11.2-2.5 15.1-13.5 11.6-33.6 8.2-48.3 0.8-15.5-5.8-28.5-20.7-27.7-37.9-13.4-11.1-25.6-27-11.5-49.8-0.3-0.7 12.1 4.4 6.6 5.1-18.1 2.4-19.7 0.5-26.6 0.3-6.3-0.2-23.3-4.7-23.3-4.7-3.5-5.4-1.4-18.5-1-26.9 0 0-2.6-8.3 9.2-10.3 12.5-2.1 27.3-0.8 50.6-2.5q0.9-0.7 1.8-1.4c7.4-5.6 16-9.4 24.9-11.5z"/><path class="C" d="m499.7 263.4c0 0-5.9-13.9-12.4-22 0 0 14.4-7.4 23.8 1.5 9.4 9 28 36.5 26.8 53.7-0.9 12.4-16.2 17.5-24.5 17.8 0 0 2.5-7.1-1.8-19.3 0 0 1.7 21.3-16.9 35.2-18.6 13.9-74.3 5.7-74.3 5.7 0 0 30.9 7.8 44.6 6.6 0 0 3.6 8.8-1.7 12.7-8.8 6.4-24.8 10.1-50.5-4.9-25.8-14.9-15.9-42.2-15.9-42.2 0 0-3.8 3.2-4.8 7.4 0 0-14.8-13.1-12.8-31.2 1.3-11.3 16.6-26.1 16.6-26.1 0 0-14.5-2.2-28.3-0.1-2.5 0.4 22.2 0 19.8 3.3l-7.2 9.6c-3.3 4.5-40.2-2.4-41.4-4.4-0.5-3.5-0.5-20 3.4-27.4 2.5-5 50.1-1 57.9-6.7 17.6-12.9 44.3-16.1 63.1-5.7 18.8 10.4 36.5 36.5 36.5 36.5z"/><path class="D" d="m444.1 209.6c6-0.3 10.3 5.3 13 10.4-8.9-3.2-18.4-4.3-27.8-2.8q0.9-0.8 1.9-1.6c4.2-3.1 8.8-5.7 12.9-6z"/><path  d="m390.6 105.5c0 0-4.6 11.3-23.5 7-18.8-4.3-14.3-31.7-14.3-31.7 0 0 7.1 22.3 18.1 23.4 10.9 1.1 19.7 1.3 19.7 1.3z"/><path  d="m441.4 124.5c-9.9 3.6-21.9 12.9-21.9 12.9 0 0 1-11.3 17.9-19.6 16.9-8.3 22 1 22 1 0 0-8 2.1-18 5.7z"/></svg>